<mxfile host="app.diagrams.net" modified="2023-11-14T13:46:34.367Z" agent="Mozilla/5.0 (Windows NT 10.0; Win64; x64) AppleWebKit/537.36 (KHTML, like Gecko) Chrome/119.0.0.0 Safari/537.36" etag="0syRS4p7lMBjkU5g7wB-" version="22.1.0" type="device">
  <diagram name="Page-1" id="9361dd3d-8414-5efd-6122-117bd74ce7a7">
    <mxGraphModel dx="1445" dy="1044" grid="1" gridSize="10" guides="1" tooltips="1" connect="1" arrows="1" fold="1" page="0" pageScale="1.5" pageWidth="826" pageHeight="1169" background="none" math="0" shadow="0">
      <root>
        <mxCell id="0" />
        <mxCell id="1" parent="0" />
        <mxCell id="z0K79HcIOp86cDYg3be1-92" value="" style="shape=waypoint;sketch=0;fillStyle=solid;size=6;pointerEvents=1;points=[];fillColor=none;resizable=0;rotatable=0;perimeter=centerPerimeter;snapToPoint=1;strokeWidth=9;" vertex="1" parent="1">
          <mxGeometry x="920" y="70" width="20" height="20" as="geometry" />
        </mxCell>
        <mxCell id="z0K79HcIOp86cDYg3be1-93" value="" style="endArrow=classic;html=1;rounded=0;exitX=0.57;exitY=0.8;exitDx=0;exitDy=0;exitPerimeter=0;" edge="1" parent="1" source="z0K79HcIOp86cDYg3be1-92">
          <mxGeometry width="50" height="50" relative="1" as="geometry">
            <mxPoint x="970" y="110" as="sourcePoint" />
            <mxPoint x="930" y="140" as="targetPoint" />
          </mxGeometry>
        </mxCell>
        <mxCell id="z0K79HcIOp86cDYg3be1-107" value="Новый заказ" style="swimlane;startSize=20;horizontal=1;containerType=tree;" vertex="1" parent="1">
          <mxGeometry x="750" y="140" width="180" height="340" as="geometry" />
        </mxCell>
        <mxCell id="z0K79HcIOp86cDYg3be1-111" value="" style="shape=waypoint;sketch=0;fillStyle=solid;size=6;pointerEvents=1;points=[];fillColor=none;resizable=0;rotatable=0;perimeter=centerPerimeter;snapToPoint=1;strokeWidth=9;" vertex="1" parent="z0K79HcIOp86cDYg3be1-107">
          <mxGeometry x="70" y="40" width="20" height="20" as="geometry" />
        </mxCell>
        <mxCell id="z0K79HcIOp86cDYg3be1-112" value="" style="endArrow=classic;html=1;rounded=0;exitX=0.467;exitY=0.878;exitDx=0;exitDy=0;exitPerimeter=0;" edge="1" parent="z0K79HcIOp86cDYg3be1-107" source="z0K79HcIOp86cDYg3be1-111">
          <mxGeometry width="50" height="50" relative="1" as="geometry">
            <mxPoint x="50" y="160" as="sourcePoint" />
            <mxPoint x="80" y="110" as="targetPoint" />
          </mxGeometry>
        </mxCell>
        <mxCell id="z0K79HcIOp86cDYg3be1-113" value="Выбор товаров" style="rounded=1;whiteSpace=wrap;html=1;" vertex="1" parent="z0K79HcIOp86cDYg3be1-107">
          <mxGeometry x="30" y="110" width="120" height="60" as="geometry" />
        </mxCell>
        <mxCell id="z0K79HcIOp86cDYg3be1-114" value="Корзина покупателя" style="rounded=1;whiteSpace=wrap;html=1;" vertex="1" parent="z0K79HcIOp86cDYg3be1-107">
          <mxGeometry x="40" y="220" width="120" height="60" as="geometry" />
        </mxCell>
        <mxCell id="z0K79HcIOp86cDYg3be1-115" value="" style="endArrow=classic;html=1;rounded=0;exitX=0.5;exitY=1;exitDx=0;exitDy=0;entryX=0.624;entryY=0.048;entryDx=0;entryDy=0;entryPerimeter=0;" edge="1" parent="z0K79HcIOp86cDYg3be1-107" source="z0K79HcIOp86cDYg3be1-113" target="z0K79HcIOp86cDYg3be1-114">
          <mxGeometry width="50" height="50" relative="1" as="geometry">
            <mxPoint x="-90" y="200" as="sourcePoint" />
            <mxPoint x="-40" y="150" as="targetPoint" />
          </mxGeometry>
        </mxCell>
        <mxCell id="z0K79HcIOp86cDYg3be1-116" value="Ожидание подтверждения" style="rounded=1;whiteSpace=wrap;html=1;" vertex="1" parent="1">
          <mxGeometry x="1020" y="190" width="150" height="80" as="geometry" />
        </mxCell>
        <mxCell id="z0K79HcIOp86cDYg3be1-118" value="Подтверждение заказа" style="html=1;verticalAlign=bottom;endArrow=block;curved=0;rounded=0;exitX=1;exitY=0.5;exitDx=0;exitDy=0;entryX=0.5;entryY=1;entryDx=0;entryDy=0;" edge="1" parent="1" source="z0K79HcIOp86cDYg3be1-114" target="z0K79HcIOp86cDYg3be1-116">
          <mxGeometry width="80" relative="1" as="geometry">
            <mxPoint x="1010" y="330" as="sourcePoint" />
            <mxPoint x="1090" y="330" as="targetPoint" />
          </mxGeometry>
        </mxCell>
        <mxCell id="z0K79HcIOp86cDYg3be1-119" value="Ожидание оплаты" style="rounded=1;whiteSpace=wrap;html=1;" vertex="1" parent="1">
          <mxGeometry x="1220" y="320" width="120" height="60" as="geometry" />
        </mxCell>
        <mxCell id="z0K79HcIOp86cDYg3be1-121" value="Ожидание отгрузки" style="rounded=1;whiteSpace=wrap;html=1;" vertex="1" parent="1">
          <mxGeometry x="1220" y="450" width="120" height="60" as="geometry" />
        </mxCell>
        <mxCell id="z0K79HcIOp86cDYg3be1-122" value="Подтверждение" style="html=1;verticalAlign=bottom;endArrow=block;curved=0;rounded=0;exitX=0.667;exitY=1;exitDx=0;exitDy=0;exitPerimeter=0;entryX=0.404;entryY=-0.026;entryDx=0;entryDy=0;entryPerimeter=0;" edge="1" parent="1" source="z0K79HcIOp86cDYg3be1-116" target="z0K79HcIOp86cDYg3be1-119">
          <mxGeometry width="80" relative="1" as="geometry">
            <mxPoint x="1110" y="320" as="sourcePoint" />
            <mxPoint x="1190" y="320" as="targetPoint" />
          </mxGeometry>
        </mxCell>
        <mxCell id="z0K79HcIOp86cDYg3be1-123" value="Оплачено" style="html=1;verticalAlign=bottom;endArrow=block;curved=0;rounded=0;exitX=0.5;exitY=1;exitDx=0;exitDy=0;entryX=0.5;entryY=0;entryDx=0;entryDy=0;" edge="1" parent="1" source="z0K79HcIOp86cDYg3be1-119" target="z0K79HcIOp86cDYg3be1-121">
          <mxGeometry width="80" relative="1" as="geometry">
            <mxPoint x="1100" y="420" as="sourcePoint" />
            <mxPoint x="1180" y="420" as="targetPoint" />
          </mxGeometry>
        </mxCell>
        <mxCell id="z0K79HcIOp86cDYg3be1-124" value="Отгружен" style="html=1;verticalAlign=bottom;endArrow=block;curved=0;rounded=0;exitX=0.5;exitY=1;exitDx=0;exitDy=0;" edge="1" parent="1" source="z0K79HcIOp86cDYg3be1-121">
          <mxGeometry width="80" relative="1" as="geometry">
            <mxPoint x="1250" y="590" as="sourcePoint" />
            <mxPoint x="1280" y="600" as="targetPoint" />
          </mxGeometry>
        </mxCell>
        <mxCell id="z0K79HcIOp86cDYg3be1-125" value="Зашершение" style="swimlane;" vertex="1" parent="1">
          <mxGeometry x="1170" y="600" width="200" height="300" as="geometry" />
        </mxCell>
        <mxCell id="z0K79HcIOp86cDYg3be1-126" value="" style="shape=waypoint;sketch=0;fillStyle=solid;size=6;pointerEvents=1;points=[];fillColor=none;resizable=0;rotatable=0;perimeter=centerPerimeter;snapToPoint=1;strokeWidth=8;" vertex="1" parent="z0K79HcIOp86cDYg3be1-125">
          <mxGeometry x="50" y="50" width="20" height="20" as="geometry" />
        </mxCell>
        <mxCell id="z0K79HcIOp86cDYg3be1-127" value="" style="endArrow=classic;html=1;rounded=0;exitX=0.467;exitY=0.8;exitDx=0;exitDy=0;exitPerimeter=0;" edge="1" parent="z0K79HcIOp86cDYg3be1-125" source="z0K79HcIOp86cDYg3be1-126">
          <mxGeometry width="50" height="50" relative="1" as="geometry">
            <mxPoint x="100" y="180" as="sourcePoint" />
            <mxPoint x="60" y="100" as="targetPoint" />
          </mxGeometry>
        </mxCell>
        <mxCell id="z0K79HcIOp86cDYg3be1-128" value="Доставка" style="rounded=1;whiteSpace=wrap;html=1;" vertex="1" parent="z0K79HcIOp86cDYg3be1-125">
          <mxGeometry x="20" y="100" width="120" height="60" as="geometry" />
        </mxCell>
        <mxCell id="z0K79HcIOp86cDYg3be1-130" value="Закрытие заказа" style="rounded=1;whiteSpace=wrap;html=1;" vertex="1" parent="z0K79HcIOp86cDYg3be1-125">
          <mxGeometry x="60" y="220" width="100" height="40" as="geometry" />
        </mxCell>
        <mxCell id="z0K79HcIOp86cDYg3be1-131" value="Заказ получен клиентом" style="html=1;verticalAlign=bottom;endArrow=block;curved=0;rounded=0;exitX=0.5;exitY=1;exitDx=0;exitDy=0;entryX=0.25;entryY=0;entryDx=0;entryDy=0;" edge="1" parent="z0K79HcIOp86cDYg3be1-125" source="z0K79HcIOp86cDYg3be1-128" target="z0K79HcIOp86cDYg3be1-130">
          <mxGeometry width="80" relative="1" as="geometry">
            <mxPoint x="100" y="190" as="sourcePoint" />
            <mxPoint x="180" y="190" as="targetPoint" />
          </mxGeometry>
        </mxCell>
        <mxCell id="z0K79HcIOp86cDYg3be1-133" value="" style="curved=1;endArrow=classic;html=1;rounded=0;exitX=1;exitY=0;exitDx=0;exitDy=0;entryX=1.012;entryY=0.067;entryDx=0;entryDy=0;entryPerimeter=0;" edge="1" parent="1" source="z0K79HcIOp86cDYg3be1-119" target="z0K79HcIOp86cDYg3be1-107">
          <mxGeometry width="50" height="50" relative="1" as="geometry">
            <mxPoint x="1410" y="230" as="sourcePoint" />
            <mxPoint x="930" y="180" as="targetPoint" />
            <Array as="points">
              <mxPoint x="1460" y="230" />
              <mxPoint x="1370" y="160" />
            </Array>
          </mxGeometry>
        </mxCell>
        <mxCell id="z0K79HcIOp86cDYg3be1-135" value="" style="edgeStyle=elbowEdgeStyle;elbow=horizontal;endArrow=classic;html=1;curved=0;rounded=0;endSize=8;startSize=8;entryX=1;entryY=0.25;entryDx=0;entryDy=0;exitX=0;exitY=0.75;exitDx=0;exitDy=0;" edge="1" parent="1" source="z0K79HcIOp86cDYg3be1-116" target="z0K79HcIOp86cDYg3be1-107">
          <mxGeometry width="50" height="50" relative="1" as="geometry">
            <mxPoint x="950" y="280" as="sourcePoint" />
            <mxPoint x="1000" y="230" as="targetPoint" />
            <Array as="points">
              <mxPoint x="960" y="260" />
            </Array>
          </mxGeometry>
        </mxCell>
        <mxCell id="z0K79HcIOp86cDYg3be1-138" value="Отмена" style="text;align=center;fontStyle=1;verticalAlign=middle;spacingLeft=3;spacingRight=3;strokeColor=none;rotatable=0;points=[[0,0.5],[1,0.5]];portConstraint=eastwest;html=1;" vertex="1" parent="1">
          <mxGeometry x="1100" y="140" width="80" height="26" as="geometry" />
        </mxCell>
        <mxCell id="z0K79HcIOp86cDYg3be1-139" value="Отмена" style="text;align=center;fontStyle=1;verticalAlign=middle;spacingLeft=3;spacingRight=3;strokeColor=none;rotatable=0;points=[[0,0.5],[1,0.5]];portConstraint=eastwest;html=1;" vertex="1" parent="1">
          <mxGeometry x="950" y="250" width="80" height="26" as="geometry" />
        </mxCell>
        <mxCell id="z0K79HcIOp86cDYg3be1-140" value="&amp;nbsp; &amp;nbsp; &amp;nbsp; &amp;nbsp; &amp;nbsp; &amp;nbsp; &amp;nbsp; &amp;nbsp; &amp;nbsp; &amp;nbsp; &amp;nbsp; &amp;nbsp; &amp;nbsp; &lt;br&gt;Запрос на оформеление заказа" style="html=1;verticalAlign=bottom;endArrow=block;curved=0;rounded=0;entryX=-0.034;entryY=0.14;entryDx=0;entryDy=0;entryPerimeter=0;" edge="1" parent="1" target="z0K79HcIOp86cDYg3be1-116">
          <mxGeometry width="80" relative="1" as="geometry">
            <mxPoint x="930" y="190" as="sourcePoint" />
            <mxPoint x="1010" y="190" as="targetPoint" />
          </mxGeometry>
        </mxCell>
      </root>
    </mxGraphModel>
  </diagram>
</mxfile>
